<svg id="Layer_1" height="512" viewBox="0 0 512 512" width="512" xmlns="http://www.w3.org/2000/svg" data-name="Layer 1"><path d="m478.4 236.81a4.805 4.805 0 1 1 -4.8 4.81 4.806 4.806 0 0 1 4.8-4.81z" fill="#5ac5df"/><path d="m496.19 86.63a4.805 4.805 0 1 1 -4.8 4.81 4.806 4.806 0 0 1 4.8-4.81z" fill="#5ac5df"/><path d="m343.89 73.26a4.805 4.805 0 1 1 -4.81 4.81 4.8 4.8 0 0 1 4.81-4.81z" fill="#5ac5df"/><path d="m243.64 219.22a4.805 4.805 0 1 1 -4.81 4.81 4.8 4.8 0 0 1 4.81-4.81z" fill="#5ac5df"/><path d="m258.87 269.26a4.805 4.805 0 1 1 -4.81 4.81 4.8 4.8 0 0 1 4.81-4.81z" fill="#5ac5df"/><path d="m451.6 45.35-15.68 12.64 1.53 20.08-16.86-11-18.63 7.65 5.26-19.44-13.04-15.34 20.11-1.01 10.57-17.14 7.17 18.81z" fill="#50dd5a"/><path d="m487.42 160.13-15.67 12.64 1.53 20.07-16.87-11-18.62 7.65 5.25-19.43-13.03-15.35 20.11-1.01 10.57-17.14 7.17 18.82z" fill="#50dd5a"/><path d="m427.8 253.12-19.92 2.89-8.91 18.06-8.91-18.06-19.93-2.89 14.42-14.06-3.4-19.84 17.82 9.37 17.82-9.37-3.4 19.84z" fill="#50dd5a"/><path d="m352.74 297.48v162.49a30.241 30.241 0 0 1 -30.24 30.24h-83.67v-192.73z" fill="#e04a5d"/><path d="m291.49 105.46 22.65 35.62-104.63 66.52-38.88-61.14 79.11-50.3a30.243 30.243 0 0 1 41.75 9.3z" fill="#e04a5d"/><path d="m162.57 297.48h76.26v192.73h-76.26z" fill="#f9cd53"/><path d="m137.58 167.48v-.01l33.05-21.01 38.88 61.14-64.88 41.25-38.88-61.13z" fill="#f9cd53"/><path d="m162.57 297.48v192.73h-63.65a30.244 30.244 0 0 1 -30.25-30.24v-162.49z" fill="#e04a5d"/><path d="m144.63 248.85-106.26 67.56-22.64-35.61a30.24 30.24 0 0 1 9.29-41.75l80.73-51.33z" fill="#e04a5d"/><path d="m98.67 459.97v-162.49h-30v162.49a30.244 30.244 0 0 0 30.25 30.24h30a30.244 30.244 0 0 1 -30.25-30.24z" fill="#ff5a5a"/><path d="m46.73 259.8a30.244 30.244 0 0 1 3.093-36.52l-24.8 15.77a30.24 30.24 0 0 0 -9.29 41.75l22.64 35.61 31-21z" fill="#ff5a5a"/><g fill="#284268"><path d="m352.742 291.476h-263.963l228.58-145.334a6 6 0 0 0 1.844-8.284l-22.647-35.618a36.285 36.285 0 0 0 -50.033-11.14l-32.165 20.451 2.548-12.191a34.314 34.314 0 1 0 -66.987-14.914l-16.71 75.054-55.951-12.454a34.315 34.315 0 0 0 -21 65.026l-34.458 21.91a36.285 36.285 0 0 0 -11.14 50.032l22.647 35.619a6 6 0 0 0 8.283 1.845l21.08-13.4v151.888a36.285 36.285 0 0 0 36.246 36.244h223.584a36.285 36.285 0 0 0 36.244-36.244v-162.49a6 6 0 0 0 -6.002-6zm-99.78-190.248a24.084 24.084 0 0 1 12.961-3.794 24.481 24.481 0 0 1 5.316.587 24.09 24.09 0 0 1 15.19 10.658l19.428 30.555-94.5 60.086-32.436-51.014zm-91.33-14.173a22.314 22.314 0 1 1 43.545 9.775l-4.926 23.564-53.667 34.249zm7.16 67.69 32.436 51.014-54.76 34.816-32.435-51.014zm-117.821 37.768a22.314 22.314 0 0 1 23.679-33.754l48.485 10.794-53.822 33.739-4.362-.972a22.168 22.168 0 0 1 -13.98-9.807zm-10.755 115.619-19.427-30.556a24.272 24.272 0 0 1 7.45-33.467l75.667-48.109 32.435 51.014zm116.353 176.078h-57.653a24.272 24.272 0 0 1 -24.244-24.244v-156.49h81.9zm76.264 0h-64.264v-180.734h64.264zm113.909-24.244a24.272 24.272 0 0 1 -24.242 24.244h-77.667v-180.734h101.909z"/><path d="m419.833 236.971 2.87-16.735a6 6 0 0 0 -8.703-6.325l-15.028 7.9-15.029-7.9a6 6 0 0 0 -8.706 6.325l2.87 16.735-12.158 11.85a6 6 0 0 0 3.325 10.235l16.8 2.442 7.514 15.225a6 6 0 0 0 10.762 0l7.513-15.225 16.8-2.442a6 6 0 0 0 3.325-10.235zm-12.817 13.1a6 6 0 0 0 -4.518 3.282l-3.529 7.152-3.53-7.152a6 6 0 0 0 -4.517-3.282l-7.894-1.147 5.712-5.567a6 6 0 0 0 1.726-5.311l-1.349-7.862 7.06 3.711a5.994 5.994 0 0 0 5.584 0l7.059-3.711-1.348 7.862a6 6 0 0 0 1.725 5.311l5.712 5.567z"/><path d="m488.841 154.3-16.5-4.01-6.051-15.863a6 6 0 0 0 -10.714-1.012l-8.911 14.453-16.957.853a6 6 0 0 0 -4.272 9.876l10.991 12.941-4.427 16.39a6 6 0 0 0 8.073 7.115l15.7-6.454 14.227 9.277a6 6 0 0 0 9.261-5.479l-1.285-16.93 13.213-10.657a6 6 0 0 0 -2.348-10.5zm-20.856 13.8a6 6 0 0 0 -2.216 5.125l.6 7.953-6.681-4.359a6 6 0 0 0 -5.559-.524l-7.376 3.032 2.08-7.7a6 6 0 0 0 -1.219-5.449l-5.163-6.079 7.966-.4a6 6 0 0 0 4.807-2.842l4.185-6.789 2.842 7.452a6 6 0 0 0 4.189 3.691l7.751 1.884z"/><path d="m400.6 56.763-4.429 16.39a6 6 0 0 0 8.073 7.116l15.7-6.455 14.221 9.279a6 6 0 0 0 9.261-5.48l-1.285-16.93 13.216-10.658a6 6 0 0 0 -2.348-10.5l-16.5-4.009-6.05-15.864a6 6 0 0 0 -10.714-1.01l-8.91 14.452-16.958.852a6 6 0 0 0 -4.273 9.876zm13.991-11.844a6 6 0 0 0 4.806-2.843l4.186-6.789 2.842 7.452a6 6 0 0 0 4.189 3.692l7.75 1.883-6.208 5.006a6 6 0 0 0 -2.217 5.125l.6 7.954-6.681-4.359a6 6 0 0 0 -5.559-.524l-7.376 3.032 2.08-7.7a6 6 0 0 0 -1.219-5.45l-5.163-6.08z"/><path d="m291.746 237.835c-13.546 8.525-20.164 18.855-20.439 19.291a6 6 0 0 0 10.134 6.427c.9-1.4 22.609-34.215 69.86-22.527a6 6 0 0 0 2.883-11.648c-29.072-7.193-50.001.628-62.438 8.457z"/><path d="m405.6 174.293a6 6 0 0 0 4.6-11.084c-42.714-17.727-73.759-4.452-92.28 9.808a112.488 112.488 0 0 0 -29.868 35.246 6 6 0 1 0 10.748 5.337 101.191 101.191 0 0 1 26.44-31.075c23.288-17.925 50.325-20.697 80.36-8.232z"/><path d="m338.178 129.844a6 6 0 0 0 3.862 7.555 90.163 90.163 0 0 0 25.438 3.676c10.034 0 21.623-1.811 32.015-7.971 13.6-8.058 22.32-21.787 25.934-40.8a6 6 0 1 0 -11.789-2.24c-2.938 15.461-9.738 26.46-20.211 32.69-19.921 11.853-47.267 3.367-47.7 3.229a6 6 0 0 0 -7.549 3.861z"/><path d="m258.867 284.873a10.806 10.806 0 1 0 -10.805-10.806 10.819 10.819 0 0 0 10.805 10.806zm0-12a1.195 1.195 0 1 1 -1.194 1.194 1.2 1.2 0 0 1 1.194-1.194z"/><path d="m343.887 88.873a10.806 10.806 0 1 0 -10.806-10.806 10.818 10.818 0 0 0 10.806 10.806zm0-12a1.195 1.195 0 1 1 -1.195 1.194 1.2 1.2 0 0 1 1.195-1.194z"/><path d="m496.194 80.633a10.806 10.806 0 1 0 10.806 10.805 10.817 10.817 0 0 0 -10.806-10.805zm0 12a1.195 1.195 0 1 1 1.195-1.195 1.2 1.2 0 0 1 -1.195 1.195z"/><path d="m254.444 224.027a10.806 10.806 0 1 0 -10.8 10.806 10.817 10.817 0 0 0 10.8-10.806zm-10.8 1.2a1.195 1.195 0 1 1 1.194-1.2 1.2 1.2 0 0 1 -1.199 1.195z"/><path d="m478.4 230.812a10.806 10.806 0 1 0 10.806 10.806 10.818 10.818 0 0 0 -10.806-10.806zm0 12a1.194 1.194 0 1 1 1.195-1.194 1.2 1.2 0 0 1 -1.195 1.194z"/></g></svg>